#!OML:ASF F:\VICON\USERDATA\INSTALL\Justin_Nancy\Justin_Nancy.ASF
:FULLY-SPECIFIED
:DEGREES
174
root -6.98552 17.409 -5.27948 1.71321 18.651 -7.56271
lowerback 5.03274 2.23501 4.87662
upperback 0.0625154 3.36267 3.12394
thorax -2.66689 1.63579 0.250315
lowerneck -14.4569 -3.80861 -8.93269
upperneck 24.2948 -4.14785 4.45077
head 10.4606 -2.17563 2.54594
rclavicle -3.61291e-014 2.66371e-014
rhumerus -25.4255 -9.03629 -74.4755
rradius 32.8997
rwrist 5.96078
rhand -17.3574 14.4454
rfingers 7.12502
rthumb 8.89043 -15.3473
lclavicle -3.61291e-014 2.66371e-014
lhumerus -35.5834 13.0103 83.1665
lradius 21.8774
lwrist -15.1345
lhand -13.8733 27.504
lfingers 7.12502
lthumb 12.2512 57.1252
rfemur 7.43843 0.503144 30.1799
rtibia 13.4799
rfoot -10.8216 -14.3486
rtoes -6.70371
lfemur -34.2887 -2.73025 -14.1827
ltibia 18.7255
lfoot -12.2913 20.0403
ltoes 2.96353
175
root -6.92254 17.3942 -5.13717 1.69978 18.8513 -7.70559
lowerback 4.91775 2.35351 5.08368
upperback -0.0272743 3.52483 3.00527
thorax -2.67069 1.71169 0.00613645
lowerneck -14.1162 -3.75595 -8.42599
upperneck 24.1025 -4.20601 4.3651
head 10.3123 -2.16734 2.42406
rclavicle 2.43263e-014 4.23411e-014
rhumerus -25.766 -9.25524 -74.5589
rradius 33.0693
rwrist 5.33017
rhand -17.7316 14.739
rfingers 7.12502
rthumb 8.52935 -15.0687
lclavicle 2.43263e-014 4.23411e-014
lhumerus -35.8763 12.3073 83.1434
lradius 21.9415
lwrist -14.8028
lhand -13.976 27.3054
lfingers 7.12502
lthumb 12.1522 56.9324
rfemur 8.03341 0.552426 30.3208
rtibia 13.4082
rfoot -10.338 -14.3658
rtoes -8.06643
lfemur -34.4382 -1.69354 -14.5681
ltibia 19.1824
lfoot -11.0655 18.6298
ltoes 1.31874
176
root -6.86041 17.3973 -4.99595 1.68215 19.031 -7.66261
lowerback 5.00626 2.55378 5.08038
upperback -0.212598 3.80104 2.79423
thorax -2.88822 1.84027 -0.23648
lowerneck -13.6816 -3.84635 -7.89604
upperneck 24.093 -4.49382 4.34324
head 10.2295 -2.25758 2.29394
rclavicle 1.95803e-014 -2.28602e-014
rhumerus -26.3763 -10.0093 -74.4926
rradius 33.4319
rwrist 5.35685
rhand -17.4572 14.7467
rfingers 7.12502
rthumb 8.79415 -15.0501
lclavicle 1.95803e-014 -2.28602e-014
lhumerus -36.2594 11.6462 82.963
lradius 21.9105
lwrist -14.682
lhand -14.1442 26.5646
lfingers 7.12502
lthumb 11.99 56.2011
rfemur 8.56341 0.710187 30.2744
rtibia 13.5228
rfoot -10.1327 -14.5168
rtoes -8.78175
lfemur -34.3461 -1.13723 -14.8706
ltibia 19.6926
lfoot -10.996 17.3723
ltoes 4.2844
177
root -6.79308 17.4091 -4.85635 1.70321 19.2033 -7.48109
lowerback 5.04563 2.83423 5.06366
upperback -0.341312 4.17203 2.4864
thorax -3.00696 2.01767 -0.5742
lowerneck -13.3437 -4.03572 -7.51764
upperneck 24.0986 -4.9266 4.5341
head 10.1891 -2.40329 2.24549
rclavicle 1.04362e-015 1.37161e-014
rhumerus -27.0978 -11.1195 -74.3524
rradius 33.9088
rwrist 5.44287
rhand -17.1046 14.5129
rfingers 7.12502
rthumb 9.1344 -15.2693
lclavicle 1.04362e-015 1.37161e-014
lhumerus -36.3126 11.2915 82.5974
lradius 21.4818
lwrist -15.1563
lhand -14.1994 26.6754
lfingers 7.12502
lthumb 11.9369 56.3151
rfemur 8.89603 0.723867 29.9943
rtibia 13.9048
rfoot -10.0864 -14.4778
rtoes -8.84608
lfemur -34.1283 -0.727484 -15.2359
ltibia 20.2227
lfoot -11.2958 15.9914
ltoes 8.37785
178
root -6.72043 17.4088 -4.71632 1.58734 19.3708 -7.45991
lowerback 5.046 2.58188 4.96784
upperback -0.0690087 3.82607 2.772
thorax -2.76636 1.85854 -0.196862
lowerneck -14.2427 -3.82965 -8.3052
upperneck 24.3292 -4.40709 4.6531
head 10.4361 -2.21362 2.48129
rclavicle -4.8255e-014 -1.70955e-014
rhumerus -26.4232 -10.1984 -74.4284
rradius 33.8869
rwrist 4.93258
rhand -17.5156 14.6571
rfingers 7.12502
rthumb 8.73778 -15.142
lclavicle -4.8255e-014 -1.70955e-014
lhumerus -36.1491 13.0558 82.38
lradius 21.1697
lwrist -15.7721
lhand -14.0388 26.5443
lfingers 7.12502
lthumb 12.0917 56.1749
rfemur 9.22505 0.848102 29.8974
rtibia 14.4515
rfoot -9.97006 -14.5572
rtoes -9.14886
lfemur -33.8648 -0.671415 -15.2992
ltibia 20.7813
lfoot -10.9314 14.7828
ltoes 6.60388
179
root -6.64587 17.3904 -4.57455 1.474 19.4748 -7.54569
lowerback 5.12603 2.51949 5.09276
upperback -0.0027816 3.7557 2.85606
thorax -2.74331 1.8238 -0.176981
lowerneck -14.7373 -3.77679 -8.40436
upperneck 24.5341 -4.2483 4.57264
head 10.5966 -2.15498 2.48778
rclavicle -7.79484e-014 -3.65764e-014
rhumerus -26.2173 -10.0063 -74.5176
rradius 33.9951
rwrist 4.81825
rhand -17.4256 14.2141
rfingers 7.12502
rthumb 8.82466 -15.5814
lclavicle -7.79484e-014 -3.65764e-014
lhumerus -36.1965 14.2212 81.9505
lradius 20.8874
lwrist -16.4199
lhand -13.8774 26.3848
lfingers 7.12502
lthumb 12.2473 56.0062
rfemur 9.47455 0.977388 29.9526
rtibia 15.2082
rfoot -9.61434 -14.6663
rtoes -11.264
lfemur -33.5987 -0.8517 -15.1352
ltibia 21.2555
lfoot -10.4864 13.9117
ltoes 5.33076
180
root -6.57111 17.3766 -4.41951 1.30644 19.5477 -7.61629
lowerback 5.15871 2.5368 5.1748
upperback -0.00752134 3.78498 2.81645
thorax -2.75753 1.83649 -0.266711
lowerneck -14.7025 -3.77396 -8.0696
upperneck 24.5282 -4.28026 4.36845
head 10.5763 -2.16265 2.35357
rclavicle -7.68303e-014 2.70347e-014
rhumerus -26.4257 -10.5048 -74.6103
rradius 34.2679
rwrist 5.13774
rhand -17.1716 14.1182
rfingers 7.12502
rthumb 9.06979 -15.6668
lclavicle -7.68303e-014 2.70347e-014
lhumerus -36.4783 14.3831 81.6222
lradius 20.855
lwrist -16.4601
lhand -14.0263 27.3439
lfingers 7.12502
lthumb 12.1037 56.9738
rfemur 9.80826 1.15249 30.0393
rtibia 16.0659
rfoot -9.34621 -14.8496
rtoes -12.3625
lfemur -33.1331 -0.912063 -15.0114
ltibia 21.6754
lfoot -10.4833 13.0098
ltoes 7.94353
181
root -6.48847 17.3809 -4.26268 1.2483 19.6189 -7.49034
lowerback 5.10298 2.56368 5.11169
upperback -0.0831781 3.81473 2.75191
thorax -2.80293 1.84969 -0.299486
lowerneck -14.1293 -3.73183 -7.8961
upperneck 24.1708 -4.27118 4.24639
head 10.3264 -2.16096 2.28478
rclavicle 1.77415e-014 -6.95746e-015
rhumerus -26.9179 -10.6225 -74.6402
rradius 34.5088
rwrist 4.70269
rhand -17.2385 14.4483
rfingers 7.12502
rthumb 9.00522 -15.3395
lclavicle 1.77415e-014 -6.95746e-015
lhumerus -36.9443 14.05 81.5637
lradius 21.023
lwrist -15.9639
lhand -14.0479 27.8779
lfingers 7.12502
lthumb 12.0829 57.5091
rfemur 10.09 1.28462 29.8798
rtibia 16.9102
rfoot -8.89343 -15.0672
rtoes -11.2511
lfemur -32.6876 -0.799474 -15.2749
ltibia 22.1542
lfoot -10.2362 12.4165
ltoes 7.03783
182
root -6.39716 17.3985 -4.10611 1.36429 19.8734 -7.15533
lowerback 4.94167 2.57692 4.98835
upperback -0.13353 3.81045 2.59921
thorax -2.76182 1.84832 -0.381108
lowerneck -14.2092 -3.77183 -7.96752
upperneck 24.3302 -4.31951 4.30097
head 10.4066 -2.18287 2.31048
rclavicle -2.76062e-014 -1.35174e-014
rhumerus -27.1583 -10.7538 -74.6573
rradius 34.5263
rwrist 4.21035
rhand -17.1432 14.5316
rfingers 7.12502
rthumb 9.09717 -15.2522
lclavicle -2.76062e-014 -1.35174e-014
lhumerus -37.2388 13.9367 81.4415
lradius 21.0874
lwrist -15.7912
lhand -14.014 27.4661
lfingers 7.12502
lthumb 12.1156 57.0954
rfemur 10.2198 1.0691 29.4319
rtibia 17.8007
rfoot -8.50997 -15.3256
rtoes -9.92267
lfemur -32.3955 -0.444025 -16.0354
ltibia 22.5777
lfoot -9.26574 12.008
ltoes 5.06074
183
root -6.30234 17.4183 -3.94898 1.51472 20.291 -6.77561
lowerback 4.73202 2.53681 4.85321
upperback -0.164473 3.73051 2.44158
thorax -2.67699 1.81066 -0.453367
lowerneck -14.5138 -3.77363 -8.05799
upperneck 24.6827 -4.30956 4.41222
head 10.599 -2.1715 2.36753
rclavicle 1.32937e-014 -3.97569e-015
rhumerus -27.4916 -11.287 -74.6271
rradius 34.9257
rwrist 4.25746
rhand -16.9216 13.9956
rfingers 7.12502
rthumb 9.31099 -15.7787
lclavicle 1.32937e-014 -3.97569e-015
lhumerus -37.3539 14.2974 81.1631
lradius 20.8389
lwrist -16.0337
lhand -14.1083 27.4254
lfingers 7.12502
lthumb 12.0246 57.06
rfemur 10.2122 0.579018 28.8734
rtibia 18.8274
rfoot -8.47169 -15.4749
rtoes -10.8084
lfemur -32.1375 0.265956 -17.0592
ltibia 22.8423
lfoot -7.94536 11.3181
ltoes 4.87371
